<?xml version="1.0" encoding="UTF-8" standalone="no"?>
<!DOCTYPE svg PUBLIC "-//W3C//DTD SVG 1.1//EN"
 "http://www.w3.org/Graphics/SVG/1.1/DTD/svg11.dtd">
<!-- Generated by graphviz version 2.30.1 (20180420.1509)
 -->
<!-- Title: G Pages: 1 -->
<svg width="120pt" height="348pt"
 viewBox="0.00 0.00 120.00 348.00" xmlns="http://www.w3.org/2000/svg" xmlns:xlink="http://www.w3.org/1999/xlink">
<g id="graph0" class="graph" transform="scale(1 1) rotate(0) translate(4 344)">
<title>G</title>
<polygon fill="white" stroke="white" points="-4,5 -4,-344 117,-344 117,5 -4,5"/>
<g id="clust1" class="cluster"><title>cluster_Global</title>
<path fill="none" stroke="gray" d="M20,-8C20,-8 92,-8 92,-8 98,-8 104,-14 104,-20 104,-20 104,-320 104,-320 104,-326 98,-332 92,-332 92,-332 20,-332 20,-332 14,-332 8,-326 8,-320 8,-320 8,-20 8,-20 8,-14 14,-8 20,-8"/>
<text text-anchor="middle" x="56" y="-319.2" font-family="Times,serif" font-size="11.00" fill="gray">Global</text>
</g>
<g id="clust2" class="cluster"><title>cluster_\IGBIllinois</title>
<path fill="none" stroke="gray" d="M28,-16C28,-16 84,-16 84,-16 90,-16 96,-22 96,-28 96,-28 96,-292 96,-292 96,-298 90,-304 84,-304 84,-304 28,-304 28,-304 22,-304 16,-298 16,-292 16,-292 16,-28 16,-28 16,-22 22,-16 28,-16"/>
<text text-anchor="middle" x="56" y="-291.2" font-family="Times,serif" font-size="11.00" fill="gray">IGBIllinois</text>
</g>
<!-- \\IGBIllinois\\session -->
<g id="node1" class="node"><title>\\IGBIllinois\\session</title>
<polygon fill="none" stroke="black" points="88,-276 24,-276 24,-240 88,-240 88,-276"/>
<text text-anchor="middle" x="56" y="-255.2" font-family="Courier,monospace" font-size="11.00">session</text>
</g>
<!-- \\IGBIllinois\\db -->
<g id="node2" class="node"><title>\\IGBIllinois\\db</title>
<polygon fill="none" stroke="black" points="83,-222 29,-222 29,-186 83,-186 83,-222"/>
<text text-anchor="middle" x="56" y="-201.2" font-family="Courier,monospace" font-size="11.00">db</text>
</g>
<!-- \\IGBIllinois\\report -->
<g id="node3" class="node"><title>\\IGBIllinois\\report</title>
<polygon fill="none" stroke="black" points="84.5,-168 27.5,-168 27.5,-132 84.5,-132 84.5,-168"/>
<text text-anchor="middle" x="56" y="-147.2" font-family="Courier,monospace" font-size="11.00">report</text>
</g>
<!-- \\IGBIllinois\\graphs -->
<g id="node4" class="node"><title>\\IGBIllinois\\graphs</title>
<polygon fill="none" stroke="black" points="84.5,-114 27.5,-114 27.5,-78 84.5,-78 84.5,-114"/>
<text text-anchor="middle" x="56" y="-93.2" font-family="Courier,monospace" font-size="11.00">graphs</text>
</g>
<!-- \\IGBIllinois\\ldap -->
<g id="node5" class="node"><title>\\IGBIllinois\\ldap</title>
<polygon fill="none" stroke="black" points="83,-60 29,-60 29,-24 83,-24 83,-60"/>
<text text-anchor="middle" x="56" y="-39.2" font-family="Courier,monospace" font-size="11.00">ldap</text>
</g>
</g>
</svg>
