<?xml version="1.0" encoding="UTF-8" standalone="no"?>
<!DOCTYPE svg PUBLIC "-//W3C//DTD SVG 1.1//EN"
 "http://www.w3.org/Graphics/SVG/1.1/DTD/svg11.dtd">
<!-- Generated by graphviz version 2.40.1 (0)
 -->
<!-- Title: G Pages: 1 -->
<svg width="170pt" height="754pt"
 viewBox="0.00 0.00 170.00 754.00" xmlns="http://www.w3.org/2000/svg" xmlns:xlink="http://www.w3.org/1999/xlink">
<g id="graph0" class="graph" transform="scale(1 1) rotate(0) translate(4 750)">
<title>G</title>
<polygon fill="#ffffff" stroke="transparent" points="-4,4 -4,-750 166,-750 166,4 -4,4"/>
<g id="clust1" class="cluster">
<title>cluster_Global</title>
<path fill="none" stroke="#c0c0c0" d="M20,-8C20,-8 142,-8 142,-8 148,-8 154,-14 154,-20 154,-20 154,-726 154,-726 154,-732 148,-738 142,-738 142,-738 20,-738 20,-738 14,-738 8,-732 8,-726 8,-726 8,-20 8,-20 8,-14 14,-8 20,-8"/>
<text text-anchor="middle" x="81" y="-725.2" font-family="Times,serif" font-size="11.00" fill="#c0c0c0">Global</text>
</g>
<g id="clust2" class="cluster">
<title>cluster_\IGBIllinois</title>
<path fill="none" stroke="#c0c0c0" d="M28,-16C28,-16 134,-16 134,-16 140,-16 146,-22 146,-28 146,-28 146,-698 146,-698 146,-704 140,-710 134,-710 134,-710 28,-710 28,-710 22,-710 16,-704 16,-698 16,-698 16,-28 16,-28 16,-22 22,-16 28,-16"/>
<text text-anchor="middle" x="81" y="-697.2" font-family="Times,serif" font-size="11.00" fill="#c0c0c0">IGBIllinois</text>
</g>
<g id="clust3" class="cluster">
<title>cluster_\IGBIllinois\Helper</title>
<path fill="none" stroke="#c0c0c0" d="M36,-502C36,-502 126,-502 126,-502 132,-502 138,-508 138,-514 138,-514 138,-670 138,-670 138,-676 132,-682 126,-682 126,-682 36,-682 36,-682 30,-682 24,-676 24,-670 24,-670 24,-514 24,-514 24,-508 30,-502 36,-502"/>
<text text-anchor="middle" x="81" y="-669.2" font-family="Times,serif" font-size="11.00" fill="#c0c0c0">Helper</text>
</g>
<!-- \\IGBIllinois\\Helper\\functions -->
<g id="node1" class="node">
<title>\\IGBIllinois\\Helper\\functions</title>
<polygon fill="none" stroke="#000000" points="119.5,-654 42.5,-654 42.5,-618 119.5,-618 119.5,-654"/>
<text text-anchor="middle" x="81" y="-633.2" font-family="Courier,monospace" font-size="11.00" fill="#000000">functions</text>
</g>
<!-- \\IGBIllinois\\Helper\\passwordhash -->
<g id="node2" class="node">
<title>\\IGBIllinois\\Helper\\passwordhash</title>
<polygon fill="none" stroke="#000000" points="130,-600 32,-600 32,-564 130,-564 130,-600"/>
<text text-anchor="middle" x="81" y="-579.2" font-family="Courier,monospace" font-size="11.00" fill="#000000">passwordhash</text>
</g>
<!-- \\IGBIllinois\\Helper\\date_helper -->
<g id="node3" class="node">
<title>\\IGBIllinois\\Helper\\date_helper</title>
<polygon fill="none" stroke="#000000" points="126.5,-546 35.5,-546 35.5,-510 126.5,-510 126.5,-546"/>
<text text-anchor="middle" x="81" y="-525.2" font-family="Courier,monospace" font-size="11.00" fill="#000000">date_helper</text>
</g>
<!-- \\IGBIllinois\\log -->
<g id="node4" class="node">
<title>\\IGBIllinois\\log</title>
<polygon fill="none" stroke="#000000" points="108,-492 54,-492 54,-456 108,-456 108,-492"/>
<text text-anchor="middle" x="81" y="-471.2" font-family="Courier,monospace" font-size="11.00" fill="#000000">log</text>
</g>
<!-- \\IGBIllinois\\session -->
<g id="node5" class="node">
<title>\\IGBIllinois\\session</title>
<polygon fill="none" stroke="#000000" points="113,-438 49,-438 49,-402 113,-402 113,-438"/>
<text text-anchor="middle" x="81" y="-417.2" font-family="Courier,monospace" font-size="11.00" fill="#000000">session</text>
</g>
<!-- \\IGBIllinois\\cfop -->
<g id="node6" class="node">
<title>\\IGBIllinois\\cfop</title>
<polygon fill="none" stroke="#000000" points="108,-384 54,-384 54,-348 108,-348 108,-384"/>
<text text-anchor="middle" x="81" y="-363.2" font-family="Courier,monospace" font-size="11.00" fill="#000000">cfop</text>
</g>
<!-- \\IGBIllinois\\data_usage -->
<g id="node7" class="node">
<title>\\IGBIllinois\\data_usage</title>
<polygon fill="none" stroke="#000000" points="123,-330 39,-330 39,-294 123,-294 123,-330"/>
<text text-anchor="middle" x="81" y="-309.2" font-family="Courier,monospace" font-size="11.00" fill="#000000">data_usage</text>
</g>
<!-- \\IGBIllinois\\db -->
<g id="node8" class="node">
<title>\\IGBIllinois\\db</title>
<polygon fill="none" stroke="#000000" points="108,-276 54,-276 54,-240 108,-240 108,-276"/>
<text text-anchor="middle" x="81" y="-255.2" font-family="Courier,monospace" font-size="11.00" fill="#000000">db</text>
</g>
<!-- \\IGBIllinois\\report -->
<g id="node9" class="node">
<title>\\IGBIllinois\\report</title>
<polygon fill="none" stroke="#000000" points="109.5,-222 52.5,-222 52.5,-186 109.5,-186 109.5,-222"/>
<text text-anchor="middle" x="81" y="-201.2" font-family="Courier,monospace" font-size="11.00" fill="#000000">report</text>
</g>
<!-- \\IGBIllinois\\graphs -->
<g id="node10" class="node">
<title>\\IGBIllinois\\graphs</title>
<polygon fill="none" stroke="#000000" points="109.5,-168 52.5,-168 52.5,-132 109.5,-132 109.5,-168"/>
<text text-anchor="middle" x="81" y="-147.2" font-family="Courier,monospace" font-size="11.00" fill="#000000">graphs</text>
</g>
<!-- \\IGBIllinois\\ldap -->
<g id="node11" class="node">
<title>\\IGBIllinois\\ldap</title>
<polygon fill="none" stroke="#000000" points="108,-114 54,-114 54,-78 108,-78 108,-114"/>
<text text-anchor="middle" x="81" y="-93.2" font-family="Courier,monospace" font-size="11.00" fill="#000000">ldap</text>
</g>
<!-- \\IGBIllinois\\email -->
<g id="node12" class="node">
<title>\\IGBIllinois\\email</title>
<polygon fill="none" stroke="#000000" points="108,-60 54,-60 54,-24 108,-24 108,-60"/>
<text text-anchor="middle" x="81" y="-39.2" font-family="Courier,monospace" font-size="11.00" fill="#000000">email</text>
</g>
</g>
</svg>
