<?xml version="1.0" encoding="UTF-8" standalone="no"?>
<!DOCTYPE svg PUBLIC "-//W3C//DTD SVG 1.1//EN"
 "http://www.w3.org/Graphics/SVG/1.1/DTD/svg11.dtd">
<!-- Generated by graphviz version 2.40.1 (0)
 -->
<!-- Title: G Pages: 1 -->
<svg width="170pt" height="700pt"
 viewBox="0.00 0.00 170.00 700.00" xmlns="http://www.w3.org/2000/svg" xmlns:xlink="http://www.w3.org/1999/xlink">
<g id="graph0" class="graph" transform="scale(1 1) rotate(0) translate(4 696)">
<title>G</title>
<polygon fill="#ffffff" stroke="transparent" points="-4,4 -4,-696 166,-696 166,4 -4,4"/>
<g id="clust1" class="cluster">
<title>cluster_Global</title>
<path fill="none" stroke="#c0c0c0" d="M20,-8C20,-8 142,-8 142,-8 148,-8 154,-14 154,-20 154,-20 154,-672 154,-672 154,-678 148,-684 142,-684 142,-684 20,-684 20,-684 14,-684 8,-678 8,-672 8,-672 8,-20 8,-20 8,-14 14,-8 20,-8"/>
<text text-anchor="middle" x="81" y="-671.2" font-family="Times,serif" font-size="11.00" fill="#c0c0c0">Global</text>
</g>
<g id="clust2" class="cluster">
<title>cluster_\IGBIllinois</title>
<path fill="none" stroke="#c0c0c0" d="M28,-16C28,-16 134,-16 134,-16 140,-16 146,-22 146,-28 146,-28 146,-644 146,-644 146,-650 140,-656 134,-656 134,-656 28,-656 28,-656 22,-656 16,-650 16,-644 16,-644 16,-28 16,-28 16,-22 22,-16 28,-16"/>
<text text-anchor="middle" x="81" y="-643.2" font-family="Times,serif" font-size="11.00" fill="#c0c0c0">IGBIllinois</text>
</g>
<g id="clust3" class="cluster">
<title>cluster_\IGBIllinois\Helper</title>
<path fill="none" stroke="#c0c0c0" d="M36,-448C36,-448 126,-448 126,-448 132,-448 138,-454 138,-460 138,-460 138,-616 138,-616 138,-622 132,-628 126,-628 126,-628 36,-628 36,-628 30,-628 24,-622 24,-616 24,-616 24,-460 24,-460 24,-454 30,-448 36,-448"/>
<text text-anchor="middle" x="81" y="-615.2" font-family="Times,serif" font-size="11.00" fill="#c0c0c0">Helper</text>
</g>
<!-- \\IGBIllinois\\Helper\\functions -->
<g id="node1" class="node">
<title>\\IGBIllinois\\Helper\\functions</title>
<polygon fill="none" stroke="#000000" points="119.5,-600 42.5,-600 42.5,-564 119.5,-564 119.5,-600"/>
<text text-anchor="middle" x="81" y="-579.2" font-family="Courier,monospace" font-size="11.00" fill="#000000">functions</text>
</g>
<!-- \\IGBIllinois\\Helper\\passwordhash -->
<g id="node2" class="node">
<title>\\IGBIllinois\\Helper\\passwordhash</title>
<polygon fill="none" stroke="#000000" points="130,-546 32,-546 32,-510 130,-510 130,-546"/>
<text text-anchor="middle" x="81" y="-525.2" font-family="Courier,monospace" font-size="11.00" fill="#000000">passwordhash</text>
</g>
<!-- \\IGBIllinois\\Helper\\date_helper -->
<g id="node3" class="node">
<title>\\IGBIllinois\\Helper\\date_helper</title>
<polygon fill="none" stroke="#000000" points="126.5,-492 35.5,-492 35.5,-456 126.5,-456 126.5,-492"/>
<text text-anchor="middle" x="81" y="-471.2" font-family="Courier,monospace" font-size="11.00" fill="#000000">date_helper</text>
</g>
<!-- \\IGBIllinois\\log -->
<g id="node4" class="node">
<title>\\IGBIllinois\\log</title>
<polygon fill="none" stroke="#000000" points="108,-438 54,-438 54,-402 108,-402 108,-438"/>
<text text-anchor="middle" x="81" y="-417.2" font-family="Courier,monospace" font-size="11.00" fill="#000000">log</text>
</g>
<!-- \\IGBIllinois\\session -->
<g id="node5" class="node">
<title>\\IGBIllinois\\session</title>
<polygon fill="none" stroke="#000000" points="113,-384 49,-384 49,-348 113,-348 113,-384"/>
<text text-anchor="middle" x="81" y="-363.2" font-family="Courier,monospace" font-size="11.00" fill="#000000">session</text>
</g>
<!-- \\IGBIllinois\\data_usage -->
<g id="node6" class="node">
<title>\\IGBIllinois\\data_usage</title>
<polygon fill="none" stroke="#000000" points="123,-330 39,-330 39,-294 123,-294 123,-330"/>
<text text-anchor="middle" x="81" y="-309.2" font-family="Courier,monospace" font-size="11.00" fill="#000000">data_usage</text>
</g>
<!-- \\IGBIllinois\\db -->
<g id="node7" class="node">
<title>\\IGBIllinois\\db</title>
<polygon fill="none" stroke="#000000" points="108,-276 54,-276 54,-240 108,-240 108,-276"/>
<text text-anchor="middle" x="81" y="-255.2" font-family="Courier,monospace" font-size="11.00" fill="#000000">db</text>
</g>
<!-- \\IGBIllinois\\report -->
<g id="node8" class="node">
<title>\\IGBIllinois\\report</title>
<polygon fill="none" stroke="#000000" points="109.5,-222 52.5,-222 52.5,-186 109.5,-186 109.5,-222"/>
<text text-anchor="middle" x="81" y="-201.2" font-family="Courier,monospace" font-size="11.00" fill="#000000">report</text>
</g>
<!-- \\IGBIllinois\\graphs -->
<g id="node9" class="node">
<title>\\IGBIllinois\\graphs</title>
<polygon fill="none" stroke="#000000" points="109.5,-168 52.5,-168 52.5,-132 109.5,-132 109.5,-168"/>
<text text-anchor="middle" x="81" y="-147.2" font-family="Courier,monospace" font-size="11.00" fill="#000000">graphs</text>
</g>
<!-- \\IGBIllinois\\ldap -->
<g id="node10" class="node">
<title>\\IGBIllinois\\ldap</title>
<polygon fill="none" stroke="#000000" points="108,-114 54,-114 54,-78 108,-78 108,-114"/>
<text text-anchor="middle" x="81" y="-93.2" font-family="Courier,monospace" font-size="11.00" fill="#000000">ldap</text>
</g>
<!-- \\IGBIllinois\\email -->
<g id="node11" class="node">
<title>\\IGBIllinois\\email</title>
<polygon fill="none" stroke="#000000" points="108,-60 54,-60 54,-24 108,-24 108,-60"/>
<text text-anchor="middle" x="81" y="-39.2" font-family="Courier,monospace" font-size="11.00" fill="#000000">email</text>
</g>
</g>
</svg>
