<?xml version="1.0" encoding="UTF-8" standalone="no"?>
<!DOCTYPE svg PUBLIC "-//W3C//DTD SVG 1.1//EN"
 "http://www.w3.org/Graphics/SVG/1.1/DTD/svg11.dtd">
<!-- Generated by graphviz version 2.30.1 (20201013.1554)
 -->
<!-- Title: G Pages: 1 -->
<svg width="164pt" height="538pt"
 viewBox="0.00 0.00 164.00 538.00" xmlns="http://www.w3.org/2000/svg" xmlns:xlink="http://www.w3.org/1999/xlink">
<g id="graph0" class="graph" transform="scale(1 1) rotate(0) translate(4 534)">
<title>G</title>
<polygon fill="white" stroke="white" points="-4,5 -4,-534 161,-534 161,5 -4,5"/>
<g id="clust1" class="cluster"><title>cluster_Global</title>
<path fill="none" stroke="gray" d="M20,-8C20,-8 136,-8 136,-8 142,-8 148,-14 148,-20 148,-20 148,-510 148,-510 148,-516 142,-522 136,-522 136,-522 20,-522 20,-522 14,-522 8,-516 8,-510 8,-510 8,-20 8,-20 8,-14 14,-8 20,-8"/>
<text text-anchor="middle" x="78" y="-509.2" font-family="Times,serif" font-size="11.00" fill="gray">Global</text>
</g>
<g id="clust2" class="cluster"><title>cluster_\IGBIllinois</title>
<path fill="none" stroke="gray" d="M28,-16C28,-16 128,-16 128,-16 134,-16 140,-22 140,-28 140,-28 140,-482 140,-482 140,-488 134,-494 128,-494 128,-494 28,-494 28,-494 22,-494 16,-488 16,-482 16,-482 16,-28 16,-28 16,-22 22,-16 28,-16"/>
<text text-anchor="middle" x="78" y="-481.2" font-family="Times,serif" font-size="11.00" fill="gray">IGBIllinois</text>
</g>
<g id="clust3" class="cluster"><title>cluster_\IGBIllinois\Helper</title>
<path fill="none" stroke="gray" d="M36,-286C36,-286 120,-286 120,-286 126,-286 132,-292 132,-298 132,-298 132,-454 132,-454 132,-460 126,-466 120,-466 120,-466 36,-466 36,-466 30,-466 24,-460 24,-454 24,-454 24,-298 24,-298 24,-292 30,-286 36,-286"/>
<text text-anchor="middle" x="78" y="-453.2" font-family="Times,serif" font-size="11.00" fill="gray">Helper</text>
</g>
<!-- \\IGBIllinois\\Helper\\smbhash -->
<g id="node1" class="node"><title>\\IGBIllinois\\Helper\\smbhash</title>
<polygon fill="none" stroke="black" points="110,-438 46,-438 46,-402 110,-402 110,-438"/>
<text text-anchor="middle" x="78" y="-417.2" font-family="Courier,monospace" font-size="11.00">smbhash</text>
</g>
<!-- \\IGBIllinois\\Helper\\functions -->
<g id="node2" class="node"><title>\\IGBIllinois\\Helper\\functions</title>
<polygon fill="none" stroke="black" points="116.5,-384 39.5,-384 39.5,-348 116.5,-348 116.5,-384"/>
<text text-anchor="middle" x="78" y="-363.2" font-family="Courier,monospace" font-size="11.00">functions</text>
</g>
<!-- \\IGBIllinois\\Helper\\date_helper -->
<g id="node3" class="node"><title>\\IGBIllinois\\Helper\\date_helper</title>
<polygon fill="none" stroke="black" points="123.5,-330 32.5,-330 32.5,-294 123.5,-294 123.5,-330"/>
<text text-anchor="middle" x="78" y="-309.2" font-family="Courier,monospace" font-size="11.00">date_helper</text>
</g>
<!-- \\IGBIllinois\\session -->
<g id="node4" class="node"><title>\\IGBIllinois\\session</title>
<polygon fill="none" stroke="black" points="110,-276 46,-276 46,-240 110,-240 110,-276"/>
<text text-anchor="middle" x="78" y="-255.2" font-family="Courier,monospace" font-size="11.00">session</text>
</g>
<!-- \\IGBIllinois\\db -->
<g id="node5" class="node"><title>\\IGBIllinois\\db</title>
<polygon fill="none" stroke="black" points="105,-222 51,-222 51,-186 105,-186 105,-222"/>
<text text-anchor="middle" x="78" y="-201.2" font-family="Courier,monospace" font-size="11.00">db</text>
</g>
<!-- \\IGBIllinois\\report -->
<g id="node6" class="node"><title>\\IGBIllinois\\report</title>
<polygon fill="none" stroke="black" points="106.5,-168 49.5,-168 49.5,-132 106.5,-132 106.5,-168"/>
<text text-anchor="middle" x="78" y="-147.2" font-family="Courier,monospace" font-size="11.00">report</text>
</g>
<!-- \\IGBIllinois\\graphs -->
<g id="node7" class="node"><title>\\IGBIllinois\\graphs</title>
<polygon fill="none" stroke="black" points="106.5,-114 49.5,-114 49.5,-78 106.5,-78 106.5,-114"/>
<text text-anchor="middle" x="78" y="-93.2" font-family="Courier,monospace" font-size="11.00">graphs</text>
</g>
<!-- \\IGBIllinois\\ldap -->
<g id="node8" class="node"><title>\\IGBIllinois\\ldap</title>
<polygon fill="none" stroke="black" points="105,-60 51,-60 51,-24 105,-24 105,-60"/>
<text text-anchor="middle" x="78" y="-39.2" font-family="Courier,monospace" font-size="11.00">ldap</text>
</g>
</g>
</svg>
