<?xml version="1.0" encoding="UTF-8" standalone="no"?>
<!DOCTYPE svg PUBLIC "-//W3C//DTD SVG 1.1//EN"
 "http://www.w3.org/Graphics/SVG/1.1/DTD/svg11.dtd">
<!-- Generated by graphviz version 2.30.1 (20201013.1554)
 -->
<!-- Title: G Pages: 1 -->
<svg width="164pt" height="700pt"
 viewBox="0.00 0.00 164.00 700.00" xmlns="http://www.w3.org/2000/svg" xmlns:xlink="http://www.w3.org/1999/xlink">
<g id="graph0" class="graph" transform="scale(1 1) rotate(0) translate(4 696)">
<title>G</title>
<polygon fill="white" stroke="white" points="-4,5 -4,-696 161,-696 161,5 -4,5"/>
<g id="clust1" class="cluster"><title>cluster_Global</title>
<path fill="none" stroke="gray" d="M20,-8C20,-8 136,-8 136,-8 142,-8 148,-14 148,-20 148,-20 148,-672 148,-672 148,-678 142,-684 136,-684 136,-684 20,-684 20,-684 14,-684 8,-678 8,-672 8,-672 8,-20 8,-20 8,-14 14,-8 20,-8"/>
<text text-anchor="middle" x="78" y="-671.2" font-family="Times,serif" font-size="11.00" fill="gray">Global</text>
</g>
<g id="clust2" class="cluster"><title>cluster_\IGBIllinois</title>
<path fill="none" stroke="gray" d="M28,-16C28,-16 128,-16 128,-16 134,-16 140,-22 140,-28 140,-28 140,-644 140,-644 140,-650 134,-656 128,-656 128,-656 28,-656 28,-656 22,-656 16,-650 16,-644 16,-644 16,-28 16,-28 16,-22 22,-16 28,-16"/>
<text text-anchor="middle" x="78" y="-643.2" font-family="Times,serif" font-size="11.00" fill="gray">IGBIllinois</text>
</g>
<g id="clust3" class="cluster"><title>cluster_\IGBIllinois\Helper</title>
<path fill="none" stroke="gray" d="M36,-448C36,-448 120,-448 120,-448 126,-448 132,-454 132,-460 132,-460 132,-616 132,-616 132,-622 126,-628 120,-628 120,-628 36,-628 36,-628 30,-628 24,-622 24,-616 24,-616 24,-460 24,-460 24,-454 30,-448 36,-448"/>
<text text-anchor="middle" x="78" y="-615.2" font-family="Times,serif" font-size="11.00" fill="gray">Helper</text>
</g>
<!-- \\IGBIllinois\\Helper\\functions -->
<g id="node1" class="node"><title>\\IGBIllinois\\Helper\\functions</title>
<polygon fill="none" stroke="black" points="116.5,-600 39.5,-600 39.5,-564 116.5,-564 116.5,-600"/>
<text text-anchor="middle" x="78" y="-579.2" font-family="Courier,monospace" font-size="11.00">functions</text>
</g>
<!-- \\IGBIllinois\\Helper\\date_helper -->
<g id="node2" class="node"><title>\\IGBIllinois\\Helper\\date_helper</title>
<polygon fill="none" stroke="black" points="123.5,-546 32.5,-546 32.5,-510 123.5,-510 123.5,-546"/>
<text text-anchor="middle" x="78" y="-525.2" font-family="Courier,monospace" font-size="11.00">date_helper</text>
</g>
<!-- \\IGBIllinois\\Helper\\smbhash -->
<g id="node3" class="node"><title>\\IGBIllinois\\Helper\\smbhash</title>
<polygon fill="none" stroke="black" points="110,-492 46,-492 46,-456 110,-456 110,-492"/>
<text text-anchor="middle" x="78" y="-471.2" font-family="Courier,monospace" font-size="11.00">smbhash</text>
</g>
<!-- \\IGBIllinois\\db -->
<g id="node4" class="node"><title>\\IGBIllinois\\db</title>
<polygon fill="none" stroke="black" points="105,-438 51,-438 51,-402 105,-402 105,-438"/>
<text text-anchor="middle" x="78" y="-417.2" font-family="Courier,monospace" font-size="11.00">db</text>
</g>
<!-- \\IGBIllinois\\ldap -->
<g id="node5" class="node"><title>\\IGBIllinois\\ldap</title>
<polygon fill="none" stroke="black" points="105,-384 51,-384 51,-348 105,-348 105,-384"/>
<text text-anchor="middle" x="78" y="-363.2" font-family="Courier,monospace" font-size="11.00">ldap</text>
</g>
<!-- \\IGBIllinois\\session -->
<g id="node6" class="node"><title>\\IGBIllinois\\session</title>
<polygon fill="none" stroke="black" points="110,-330 46,-330 46,-294 110,-294 110,-330"/>
<text text-anchor="middle" x="78" y="-309.2" font-family="Courier,monospace" font-size="11.00">session</text>
</g>
<!-- \\IGBIllinois\\log -->
<g id="node7" class="node"><title>\\IGBIllinois\\log</title>
<polygon fill="none" stroke="black" points="105,-276 51,-276 51,-240 105,-240 105,-276"/>
<text text-anchor="middle" x="78" y="-255.2" font-family="Courier,monospace" font-size="11.00">log</text>
</g>
<!-- \\IGBIllinois\\report -->
<g id="node8" class="node"><title>\\IGBIllinois\\report</title>
<polygon fill="none" stroke="black" points="106.5,-222 49.5,-222 49.5,-186 106.5,-186 106.5,-222"/>
<text text-anchor="middle" x="78" y="-201.2" font-family="Courier,monospace" font-size="11.00">report</text>
</g>
<!-- \\IGBIllinois\\graphs -->
<g id="node9" class="node"><title>\\IGBIllinois\\graphs</title>
<polygon fill="none" stroke="black" points="106.5,-168 49.5,-168 49.5,-132 106.5,-132 106.5,-168"/>
<text text-anchor="middle" x="78" y="-147.2" font-family="Courier,monospace" font-size="11.00">graphs</text>
</g>
<!-- \\IGBIllinois\\data_usage -->
<g id="node10" class="node"><title>\\IGBIllinois\\data_usage</title>
<polygon fill="none" stroke="black" points="120,-114 36,-114 36,-78 120,-78 120,-114"/>
<text text-anchor="middle" x="78" y="-93.2" font-family="Courier,monospace" font-size="11.00">data_usage</text>
</g>
<!-- \\IGBIllinois\\email -->
<g id="node11" class="node"><title>\\IGBIllinois\\email</title>
<polygon fill="none" stroke="black" points="105,-60 51,-60 51,-24 105,-24 105,-60"/>
<text text-anchor="middle" x="78" y="-39.2" font-family="Courier,monospace" font-size="11.00">email</text>
</g>
</g>
</svg>
