<?xml version="1.0" encoding="UTF-8" standalone="no"?>
<!DOCTYPE svg PUBLIC "-//W3C//DTD SVG 1.1//EN"
 "http://www.w3.org/Graphics/SVG/1.1/DTD/svg11.dtd">
<!-- Generated by graphviz version 2.40.1 (0)
 -->
<!-- Title: G Pages: 1 -->
<svg width="170pt" height="808pt"
 viewBox="0.00 0.00 170.00 808.00" xmlns="http://www.w3.org/2000/svg" xmlns:xlink="http://www.w3.org/1999/xlink">
<g id="graph0" class="graph" transform="scale(1 1) rotate(0) translate(4 804)">
<title>G</title>
<polygon fill="#ffffff" stroke="transparent" points="-4,4 -4,-804 166,-804 166,4 -4,4"/>
<g id="clust1" class="cluster">
<title>cluster_Global</title>
<path fill="none" stroke="#c0c0c0" d="M20,-8C20,-8 142,-8 142,-8 148,-8 154,-14 154,-20 154,-20 154,-780 154,-780 154,-786 148,-792 142,-792 142,-792 20,-792 20,-792 14,-792 8,-786 8,-780 8,-780 8,-20 8,-20 8,-14 14,-8 20,-8"/>
<text text-anchor="middle" x="81" y="-779.2" font-family="Times,serif" font-size="11.00" fill="#c0c0c0">Global</text>
</g>
<g id="clust2" class="cluster">
<title>cluster_\IGBIllinois</title>
<path fill="none" stroke="#c0c0c0" d="M28,-16C28,-16 134,-16 134,-16 140,-16 146,-22 146,-28 146,-28 146,-752 146,-752 146,-758 140,-764 134,-764 134,-764 28,-764 28,-764 22,-764 16,-758 16,-752 16,-752 16,-28 16,-28 16,-22 22,-16 28,-16"/>
<text text-anchor="middle" x="81" y="-751.2" font-family="Times,serif" font-size="11.00" fill="#c0c0c0">IGBIllinois</text>
</g>
<g id="clust3" class="cluster">
<title>cluster_\IGBIllinois\Helper</title>
<path fill="none" stroke="#c0c0c0" d="M36,-556C36,-556 126,-556 126,-556 132,-556 138,-562 138,-568 138,-568 138,-724 138,-724 138,-730 132,-736 126,-736 126,-736 36,-736 36,-736 30,-736 24,-730 24,-724 24,-724 24,-568 24,-568 24,-562 30,-556 36,-556"/>
<text text-anchor="middle" x="81" y="-723.2" font-family="Times,serif" font-size="11.00" fill="#c0c0c0">Helper</text>
</g>
<!-- \\IGBIllinois\\Helper\\functions -->
<g id="node1" class="node">
<title>\\IGBIllinois\\Helper\\functions</title>
<polygon fill="none" stroke="#000000" points="119.5,-708 42.5,-708 42.5,-672 119.5,-672 119.5,-708"/>
<text text-anchor="middle" x="81" y="-687.2" font-family="Courier,monospace" font-size="11.00" fill="#000000">functions</text>
</g>
<!-- \\IGBIllinois\\Helper\\passwordhash -->
<g id="node2" class="node">
<title>\\IGBIllinois\\Helper\\passwordhash</title>
<polygon fill="none" stroke="#000000" points="130,-654 32,-654 32,-618 130,-618 130,-654"/>
<text text-anchor="middle" x="81" y="-633.2" font-family="Courier,monospace" font-size="11.00" fill="#000000">passwordhash</text>
</g>
<!-- \\IGBIllinois\\Helper\\date_helper -->
<g id="node3" class="node">
<title>\\IGBIllinois\\Helper\\date_helper</title>
<polygon fill="none" stroke="#000000" points="126.5,-600 35.5,-600 35.5,-564 126.5,-564 126.5,-600"/>
<text text-anchor="middle" x="81" y="-579.2" font-family="Courier,monospace" font-size="11.00" fill="#000000">date_helper</text>
</g>
<!-- \\IGBIllinois\\log -->
<g id="node4" class="node">
<title>\\IGBIllinois\\log</title>
<polygon fill="none" stroke="#000000" points="108,-546 54,-546 54,-510 108,-510 108,-546"/>
<text text-anchor="middle" x="81" y="-525.2" font-family="Courier,monospace" font-size="11.00" fill="#000000">log</text>
</g>
<!-- \\IGBIllinois\\session -->
<g id="node5" class="node">
<title>\\IGBIllinois\\session</title>
<polygon fill="none" stroke="#000000" points="113,-492 49,-492 49,-456 113,-456 113,-492"/>
<text text-anchor="middle" x="81" y="-471.2" font-family="Courier,monospace" font-size="11.00" fill="#000000">session</text>
</g>
<!-- \\IGBIllinois\\cfop -->
<g id="node6" class="node">
<title>\\IGBIllinois\\cfop</title>
<polygon fill="none" stroke="#000000" points="108,-438 54,-438 54,-402 108,-402 108,-438"/>
<text text-anchor="middle" x="81" y="-417.2" font-family="Courier,monospace" font-size="11.00" fill="#000000">cfop</text>
</g>
<!-- \\IGBIllinois\\data_usage -->
<g id="node7" class="node">
<title>\\IGBIllinois\\data_usage</title>
<polygon fill="none" stroke="#000000" points="123,-384 39,-384 39,-348 123,-348 123,-384"/>
<text text-anchor="middle" x="81" y="-363.2" font-family="Courier,monospace" font-size="11.00" fill="#000000">data_usage</text>
</g>
<!-- \\IGBIllinois\\db -->
<g id="node8" class="node">
<title>\\IGBIllinois\\db</title>
<polygon fill="none" stroke="#000000" points="108,-330 54,-330 54,-294 108,-294 108,-330"/>
<text text-anchor="middle" x="81" y="-309.2" font-family="Courier,monospace" font-size="11.00" fill="#000000">db</text>
</g>
<!-- \\IGBIllinois\\report -->
<g id="node9" class="node">
<title>\\IGBIllinois\\report</title>
<polygon fill="none" stroke="#000000" points="109.5,-276 52.5,-276 52.5,-240 109.5,-240 109.5,-276"/>
<text text-anchor="middle" x="81" y="-255.2" font-family="Courier,monospace" font-size="11.00" fill="#000000">report</text>
</g>
<!-- \\IGBIllinois\\graphs -->
<g id="node10" class="node">
<title>\\IGBIllinois\\graphs</title>
<polygon fill="none" stroke="#000000" points="109.5,-222 52.5,-222 52.5,-186 109.5,-186 109.5,-222"/>
<text text-anchor="middle" x="81" y="-201.2" font-family="Courier,monospace" font-size="11.00" fill="#000000">graphs</text>
</g>
<!-- \\IGBIllinois\\fbs -->
<g id="node11" class="node">
<title>\\IGBIllinois\\fbs</title>
<polygon fill="none" stroke="#000000" points="108,-168 54,-168 54,-132 108,-132 108,-168"/>
<text text-anchor="middle" x="81" y="-147.2" font-family="Courier,monospace" font-size="11.00" fill="#000000">fbs</text>
</g>
<!-- \\IGBIllinois\\ldap -->
<g id="node12" class="node">
<title>\\IGBIllinois\\ldap</title>
<polygon fill="none" stroke="#000000" points="108,-114 54,-114 54,-78 108,-78 108,-114"/>
<text text-anchor="middle" x="81" y="-93.2" font-family="Courier,monospace" font-size="11.00" fill="#000000">ldap</text>
</g>
<!-- \\IGBIllinois\\email -->
<g id="node13" class="node">
<title>\\IGBIllinois\\email</title>
<polygon fill="none" stroke="#000000" points="108,-60 54,-60 54,-24 108,-24 108,-60"/>
<text text-anchor="middle" x="81" y="-39.2" font-family="Courier,monospace" font-size="11.00" fill="#000000">email</text>
</g>
</g>
</svg>
