<?xml version="1.0" encoding="UTF-8" standalone="no"?>
<!DOCTYPE svg PUBLIC "-//W3C//DTD SVG 1.1//EN"
 "http://www.w3.org/Graphics/SVG/1.1/DTD/svg11.dtd">
<!-- Generated by graphviz version 2.40.1 (0)
 -->
<!-- Title: G Pages: 1 -->
<svg width="170pt" height="646pt"
 viewBox="0.00 0.00 170.00 646.00" xmlns="http://www.w3.org/2000/svg" xmlns:xlink="http://www.w3.org/1999/xlink">
<g id="graph0" class="graph" transform="scale(1 1) rotate(0) translate(4 642)">
<title>G</title>
<polygon fill="#ffffff" stroke="transparent" points="-4,4 -4,-642 166,-642 166,4 -4,4"/>
<g id="clust1" class="cluster">
<title>cluster_Global</title>
<path fill="none" stroke="#c0c0c0" d="M20,-8C20,-8 142,-8 142,-8 148,-8 154,-14 154,-20 154,-20 154,-618 154,-618 154,-624 148,-630 142,-630 142,-630 20,-630 20,-630 14,-630 8,-624 8,-618 8,-618 8,-20 8,-20 8,-14 14,-8 20,-8"/>
<text text-anchor="middle" x="81" y="-617.2" font-family="Times,serif" font-size="11.00" fill="#c0c0c0">Global</text>
</g>
<g id="clust2" class="cluster">
<title>cluster_\IGBIllinois</title>
<path fill="none" stroke="#c0c0c0" d="M28,-16C28,-16 134,-16 134,-16 140,-16 146,-22 146,-28 146,-28 146,-590 146,-590 146,-596 140,-602 134,-602 134,-602 28,-602 28,-602 22,-602 16,-596 16,-590 16,-590 16,-28 16,-28 16,-22 22,-16 28,-16"/>
<text text-anchor="middle" x="81" y="-589.2" font-family="Times,serif" font-size="11.00" fill="#c0c0c0">IGBIllinois</text>
</g>
<g id="clust3" class="cluster">
<title>cluster_\IGBIllinois\Helper</title>
<path fill="none" stroke="#c0c0c0" d="M36,-394C36,-394 126,-394 126,-394 132,-394 138,-400 138,-406 138,-406 138,-562 138,-562 138,-568 132,-574 126,-574 126,-574 36,-574 36,-574 30,-574 24,-568 24,-562 24,-562 24,-406 24,-406 24,-400 30,-394 36,-394"/>
<text text-anchor="middle" x="81" y="-561.2" font-family="Times,serif" font-size="11.00" fill="#c0c0c0">Helper</text>
</g>
<!-- \\IGBIllinois\\Helper\\functions -->
<g id="node1" class="node">
<title>\\IGBIllinois\\Helper\\functions</title>
<polygon fill="none" stroke="#000000" points="119.5,-546 42.5,-546 42.5,-510 119.5,-510 119.5,-546"/>
<text text-anchor="middle" x="81" y="-525.2" font-family="Courier,monospace" font-size="11.00" fill="#000000">functions</text>
</g>
<!-- \\IGBIllinois\\Helper\\passwordhash -->
<g id="node2" class="node">
<title>\\IGBIllinois\\Helper\\passwordhash</title>
<polygon fill="none" stroke="#000000" points="130,-492 32,-492 32,-456 130,-456 130,-492"/>
<text text-anchor="middle" x="81" y="-471.2" font-family="Courier,monospace" font-size="11.00" fill="#000000">passwordhash</text>
</g>
<!-- \\IGBIllinois\\Helper\\date_helper -->
<g id="node3" class="node">
<title>\\IGBIllinois\\Helper\\date_helper</title>
<polygon fill="none" stroke="#000000" points="126.5,-438 35.5,-438 35.5,-402 126.5,-402 126.5,-438"/>
<text text-anchor="middle" x="81" y="-417.2" font-family="Courier,monospace" font-size="11.00" fill="#000000">date_helper</text>
</g>
<!-- \\IGBIllinois\\log -->
<g id="node4" class="node">
<title>\\IGBIllinois\\log</title>
<polygon fill="none" stroke="#000000" points="108,-384 54,-384 54,-348 108,-348 108,-384"/>
<text text-anchor="middle" x="81" y="-363.2" font-family="Courier,monospace" font-size="11.00" fill="#000000">log</text>
</g>
<!-- \\IGBIllinois\\session -->
<g id="node5" class="node">
<title>\\IGBIllinois\\session</title>
<polygon fill="none" stroke="#000000" points="113,-330 49,-330 49,-294 113,-294 113,-330"/>
<text text-anchor="middle" x="81" y="-309.2" font-family="Courier,monospace" font-size="11.00" fill="#000000">session</text>
</g>
<!-- \\IGBIllinois\\data_usage -->
<g id="node6" class="node">
<title>\\IGBIllinois\\data_usage</title>
<polygon fill="none" stroke="#000000" points="123,-276 39,-276 39,-240 123,-240 123,-276"/>
<text text-anchor="middle" x="81" y="-255.2" font-family="Courier,monospace" font-size="11.00" fill="#000000">data_usage</text>
</g>
<!-- \\IGBIllinois\\db -->
<g id="node7" class="node">
<title>\\IGBIllinois\\db</title>
<polygon fill="none" stroke="#000000" points="108,-222 54,-222 54,-186 108,-186 108,-222"/>
<text text-anchor="middle" x="81" y="-201.2" font-family="Courier,monospace" font-size="11.00" fill="#000000">db</text>
</g>
<!-- \\IGBIllinois\\report -->
<g id="node8" class="node">
<title>\\IGBIllinois\\report</title>
<polygon fill="none" stroke="#000000" points="109.5,-168 52.5,-168 52.5,-132 109.5,-132 109.5,-168"/>
<text text-anchor="middle" x="81" y="-147.2" font-family="Courier,monospace" font-size="11.00" fill="#000000">report</text>
</g>
<!-- \\IGBIllinois\\graphs -->
<g id="node9" class="node">
<title>\\IGBIllinois\\graphs</title>
<polygon fill="none" stroke="#000000" points="109.5,-114 52.5,-114 52.5,-78 109.5,-78 109.5,-114"/>
<text text-anchor="middle" x="81" y="-93.2" font-family="Courier,monospace" font-size="11.00" fill="#000000">graphs</text>
</g>
<!-- \\IGBIllinois\\ldap -->
<g id="node10" class="node">
<title>\\IGBIllinois\\ldap</title>
<polygon fill="none" stroke="#000000" points="108,-60 54,-60 54,-24 108,-24 108,-60"/>
<text text-anchor="middle" x="81" y="-39.2" font-family="Courier,monospace" font-size="11.00" fill="#000000">ldap</text>
</g>
</g>
</svg>
