<?xml version="1.0" encoding="UTF-8" standalone="no"?>
<!DOCTYPE svg PUBLIC "-//W3C//DTD SVG 1.1//EN"
 "http://www.w3.org/Graphics/SVG/1.1/DTD/svg11.dtd">
<!-- Generated by graphviz version 2.30.1 (20180420.1509)
 -->
<!-- Title: G Pages: 1 -->
<svg width="150pt" height="430pt"
 viewBox="0.00 0.00 150.00 430.00" xmlns="http://www.w3.org/2000/svg" xmlns:xlink="http://www.w3.org/1999/xlink">
<g id="graph0" class="graph" transform="scale(1 1) rotate(0) translate(4 426)">
<title>G</title>
<polygon fill="white" stroke="white" points="-4,5 -4,-426 147,-426 147,5 -4,5"/>
<g id="clust1" class="cluster"><title>cluster_Global</title>
<path fill="none" stroke="gray" d="M20,-8C20,-8 122,-8 122,-8 128,-8 134,-14 134,-20 134,-20 134,-402 134,-402 134,-408 128,-414 122,-414 122,-414 20,-414 20,-414 14,-414 8,-408 8,-402 8,-402 8,-20 8,-20 8,-14 14,-8 20,-8"/>
<text text-anchor="middle" x="71" y="-401.2" font-family="Times,serif" font-size="11.00" fill="gray">Global</text>
</g>
<g id="clust2" class="cluster"><title>cluster_\IGBIllinois</title>
<path fill="none" stroke="gray" d="M28,-16C28,-16 114,-16 114,-16 120,-16 126,-22 126,-28 126,-28 126,-374 126,-374 126,-380 120,-386 114,-386 114,-386 28,-386 28,-386 22,-386 16,-380 16,-374 16,-374 16,-28 16,-28 16,-22 22,-16 28,-16"/>
<text text-anchor="middle" x="71" y="-373.2" font-family="Times,serif" font-size="11.00" fill="gray">IGBIllinois</text>
</g>
<g id="clust3" class="cluster"><title>cluster_\IGBIllinois\Helper</title>
<path fill="none" stroke="gray" d="M36,-286C36,-286 106,-286 106,-286 112,-286 118,-292 118,-298 118,-298 118,-346 118,-346 118,-352 112,-358 106,-358 106,-358 36,-358 36,-358 30,-358 24,-352 24,-346 24,-346 24,-298 24,-298 24,-292 30,-286 36,-286"/>
<text text-anchor="middle" x="71" y="-345.2" font-family="Times,serif" font-size="11.00" fill="gray">Helper</text>
</g>
<!-- \\IGBIllinois\\Helper\\functions -->
<g id="node1" class="node"><title>\\IGBIllinois\\Helper\\functions</title>
<polygon fill="none" stroke="black" points="109.5,-330 32.5,-330 32.5,-294 109.5,-294 109.5,-330"/>
<text text-anchor="middle" x="71" y="-309.2" font-family="Courier,monospace" font-size="11.00">functions</text>
</g>
<!-- \\IGBIllinois\\session -->
<g id="node2" class="node"><title>\\IGBIllinois\\session</title>
<polygon fill="none" stroke="black" points="103,-276 39,-276 39,-240 103,-240 103,-276"/>
<text text-anchor="middle" x="71" y="-255.2" font-family="Courier,monospace" font-size="11.00">session</text>
</g>
<!-- \\IGBIllinois\\db -->
<g id="node3" class="node"><title>\\IGBIllinois\\db</title>
<polygon fill="none" stroke="black" points="98,-222 44,-222 44,-186 98,-186 98,-222"/>
<text text-anchor="middle" x="71" y="-201.2" font-family="Courier,monospace" font-size="11.00">db</text>
</g>
<!-- \\IGBIllinois\\report -->
<g id="node4" class="node"><title>\\IGBIllinois\\report</title>
<polygon fill="none" stroke="black" points="99.5,-168 42.5,-168 42.5,-132 99.5,-132 99.5,-168"/>
<text text-anchor="middle" x="71" y="-147.2" font-family="Courier,monospace" font-size="11.00">report</text>
</g>
<!-- \\IGBIllinois\\graphs -->
<g id="node5" class="node"><title>\\IGBIllinois\\graphs</title>
<polygon fill="none" stroke="black" points="99.5,-114 42.5,-114 42.5,-78 99.5,-78 99.5,-114"/>
<text text-anchor="middle" x="71" y="-93.2" font-family="Courier,monospace" font-size="11.00">graphs</text>
</g>
<!-- \\IGBIllinois\\ldap -->
<g id="node6" class="node"><title>\\IGBIllinois\\ldap</title>
<polygon fill="none" stroke="black" points="98,-60 44,-60 44,-24 98,-24 98,-60"/>
<text text-anchor="middle" x="71" y="-39.2" font-family="Courier,monospace" font-size="11.00">ldap</text>
</g>
</g>
</svg>
