<?xml version="1.0" encoding="UTF-8" standalone="no"?>
<!DOCTYPE svg PUBLIC "-//W3C//DTD SVG 1.1//EN"
 "http://www.w3.org/Graphics/SVG/1.1/DTD/svg11.dtd">
<!-- Generated by graphviz version 2.30.1 (20201013.1554)
 -->
<!-- Title: G Pages: 1 -->
<svg width="164pt" height="592pt"
 viewBox="0.00 0.00 164.00 592.00" xmlns="http://www.w3.org/2000/svg" xmlns:xlink="http://www.w3.org/1999/xlink">
<g id="graph0" class="graph" transform="scale(1 1) rotate(0) translate(4 588)">
<title>G</title>
<polygon fill="white" stroke="white" points="-4,5 -4,-588 161,-588 161,5 -4,5"/>
<g id="clust1" class="cluster"><title>cluster_Global</title>
<path fill="none" stroke="gray" d="M20,-8C20,-8 136,-8 136,-8 142,-8 148,-14 148,-20 148,-20 148,-564 148,-564 148,-570 142,-576 136,-576 136,-576 20,-576 20,-576 14,-576 8,-570 8,-564 8,-564 8,-20 8,-20 8,-14 14,-8 20,-8"/>
<text text-anchor="middle" x="78" y="-563.2" font-family="Times,serif" font-size="11.00" fill="gray">Global</text>
</g>
<g id="clust2" class="cluster"><title>cluster_\IGBIllinois</title>
<path fill="none" stroke="gray" d="M28,-16C28,-16 128,-16 128,-16 134,-16 140,-22 140,-28 140,-28 140,-536 140,-536 140,-542 134,-548 128,-548 128,-548 28,-548 28,-548 22,-548 16,-542 16,-536 16,-536 16,-28 16,-28 16,-22 22,-16 28,-16"/>
<text text-anchor="middle" x="78" y="-535.2" font-family="Times,serif" font-size="11.00" fill="gray">IGBIllinois</text>
</g>
<g id="clust3" class="cluster"><title>cluster_\IGBIllinois\Helper</title>
<path fill="none" stroke="gray" d="M36,-340C36,-340 120,-340 120,-340 126,-340 132,-346 132,-352 132,-352 132,-508 132,-508 132,-514 126,-520 120,-520 120,-520 36,-520 36,-520 30,-520 24,-514 24,-508 24,-508 24,-352 24,-352 24,-346 30,-340 36,-340"/>
<text text-anchor="middle" x="78" y="-507.2" font-family="Times,serif" font-size="11.00" fill="gray">Helper</text>
</g>
<!-- \\IGBIllinois\\Helper\\smbhash -->
<g id="node1" class="node"><title>\\IGBIllinois\\Helper\\smbhash</title>
<polygon fill="none" stroke="black" points="110,-492 46,-492 46,-456 110,-456 110,-492"/>
<text text-anchor="middle" x="78" y="-471.2" font-family="Courier,monospace" font-size="11.00">smbhash</text>
</g>
<!-- \\IGBIllinois\\Helper\\functions -->
<g id="node2" class="node"><title>\\IGBIllinois\\Helper\\functions</title>
<polygon fill="none" stroke="black" points="116.5,-438 39.5,-438 39.5,-402 116.5,-402 116.5,-438"/>
<text text-anchor="middle" x="78" y="-417.2" font-family="Courier,monospace" font-size="11.00">functions</text>
</g>
<!-- \\IGBIllinois\\Helper\\date_helper -->
<g id="node3" class="node"><title>\\IGBIllinois\\Helper\\date_helper</title>
<polygon fill="none" stroke="black" points="123.5,-384 32.5,-384 32.5,-348 123.5,-348 123.5,-384"/>
<text text-anchor="middle" x="78" y="-363.2" font-family="Courier,monospace" font-size="11.00">date_helper</text>
</g>
<!-- \\IGBIllinois\\log -->
<g id="node4" class="node"><title>\\IGBIllinois\\log</title>
<polygon fill="none" stroke="black" points="105,-330 51,-330 51,-294 105,-294 105,-330"/>
<text text-anchor="middle" x="78" y="-309.2" font-family="Courier,monospace" font-size="11.00">log</text>
</g>
<!-- \\IGBIllinois\\session -->
<g id="node5" class="node"><title>\\IGBIllinois\\session</title>
<polygon fill="none" stroke="black" points="110,-276 46,-276 46,-240 110,-240 110,-276"/>
<text text-anchor="middle" x="78" y="-255.2" font-family="Courier,monospace" font-size="11.00">session</text>
</g>
<!-- \\IGBIllinois\\db -->
<g id="node6" class="node"><title>\\IGBIllinois\\db</title>
<polygon fill="none" stroke="black" points="105,-222 51,-222 51,-186 105,-186 105,-222"/>
<text text-anchor="middle" x="78" y="-201.2" font-family="Courier,monospace" font-size="11.00">db</text>
</g>
<!-- \\IGBIllinois\\report -->
<g id="node7" class="node"><title>\\IGBIllinois\\report</title>
<polygon fill="none" stroke="black" points="106.5,-168 49.5,-168 49.5,-132 106.5,-132 106.5,-168"/>
<text text-anchor="middle" x="78" y="-147.2" font-family="Courier,monospace" font-size="11.00">report</text>
</g>
<!-- \\IGBIllinois\\graphs -->
<g id="node8" class="node"><title>\\IGBIllinois\\graphs</title>
<polygon fill="none" stroke="black" points="106.5,-114 49.5,-114 49.5,-78 106.5,-78 106.5,-114"/>
<text text-anchor="middle" x="78" y="-93.2" font-family="Courier,monospace" font-size="11.00">graphs</text>
</g>
<!-- \\IGBIllinois\\ldap -->
<g id="node9" class="node"><title>\\IGBIllinois\\ldap</title>
<polygon fill="none" stroke="black" points="105,-60 51,-60 51,-24 105,-24 105,-60"/>
<text text-anchor="middle" x="78" y="-39.2" font-family="Courier,monospace" font-size="11.00">ldap</text>
</g>
</g>
</svg>
